<svg width="18" height="18" viewBox="0 0 17 17" fill="none" xmlns="http://www.w3.org/2000/svg">
<path d="M11.8335 13.1667H13.1668V7.83333H9.16683V13.1667H10.5002V9.16667H11.8335V13.1667ZM2.50016 13.1667V3.16667C2.50016 2.98986 2.5704 2.82029 2.69542 2.69526C2.82045 2.57024 2.99002 2.5 3.16683 2.5H12.5002C12.677 2.5 12.8465 2.57024 12.9716 2.69526C13.0966 2.82029 13.1668 2.98986 13.1668 3.16667V6.5H14.5002V13.1667H15.1668V14.5H1.8335V13.1667H2.50016ZM5.16683 7.83333V9.16667H6.50016V7.83333H5.16683ZM5.16683 10.5V11.8333H6.50016V10.5H5.16683ZM5.16683 5.16667V6.5H6.50016V5.16667H5.16683Z" fill="#C5C5C5"/>
</svg>
