<svg width="171" height="61" viewBox="0 0 171 61" fill="none" xmlns="http://www.w3.org/2000/svg">
<path d="M2.72 15.44H7.72V32.08C7.72 33.04 7.76 34.0133 7.84 35C7.94667 35.9867 8.21333 36.88 8.64 37.68C9.09333 38.4533 9.76 39.0933 10.64 39.6C11.5467 40.1067 12.8133 40.36 14.44 40.36C16.0667 40.36 17.32 40.1067 18.2 39.6C19.1067 39.0933 19.7733 38.4533 20.2 37.68C20.6533 36.88 20.92 35.9867 21 35C21.1067 34.0133 21.16 33.04 21.16 32.08V15.44H26.16V33.72C26.16 35.56 25.88 37.16 25.32 38.52C24.76 39.88 23.96 41.0267 22.92 41.96C21.9067 42.8667 20.68 43.5467 19.24 44C17.8 44.4533 16.2 44.68 14.44 44.68C12.68 44.68 11.08 44.4533 9.64 44C8.2 43.5467 6.96 42.8667 5.92 41.96C4.90667 41.0267 4.12 39.88 3.56 38.52C3 37.16 2.72 35.56 2.72 33.72V15.44ZM39.5472 15.44H44.8672L55.8672 44H50.5072L47.8272 36.44H36.4272L33.7472 44H28.5872L39.5472 15.44ZM37.7872 32.64H46.5072L42.2272 20.36H42.1072L37.7872 32.64Z" fill="#DDDDDD"/>
<path d="M72.32 40.04H60.4C60.4 47.0267 62.3467 52.1467 66.24 55.4C70.1867 58.6533 76.16 60.28 84.16 60.28C86.88 60.28 89.6267 59.9333 92.4 59.24C95.1733 58.6 97.6533 57.5333 99.84 56.04C102.08 54.5467 103.893 52.6 105.28 50.2C106.72 47.8 107.44 44.8933 107.44 41.48C107.44 38.92 107.067 36.76 106.32 35C105.573 33.24 104.507 31.7467 103.12 30.52C101.787 29.2933 100.187 28.3067 98.32 27.56C96.4533 26.76 94.4 26.0667 92.16 25.48C91.2 25.2667 89.9467 25 88.4 24.68C86.8533 24.3067 85.3333 23.8267 83.84 23.24C82.4 22.6 81.1467 21.8267 80.08 20.92C79.0667 19.96 78.56 18.7867 78.56 17.4C78.56 16.0667 78.8533 14.9467 79.44 14.04C80.0267 13.1333 80.8 12.4133 81.76 11.88C82.72 11.2933 83.7867 10.8933 84.96 10.68C86.1867 10.4133 87.3867 10.28 88.56 10.28C90 10.28 91.36 10.44 92.64 10.76C93.92 11.0267 95.0133 11.5067 95.92 12.2C96.88 12.8933 97.6 13.8 98.08 14.92C98.6133 15.9867 98.8533 17.32 98.8 18.92H110.72C110.72 15.6133 110.133 12.8133 108.96 10.52C107.84 8.17333 106.293 6.25333 104.32 4.76C102.4 3.26666 100.133 2.2 97.52 1.56C94.96 0.866665 92.2133 0.52 89.28 0.52C86.5067 0.52 83.76 0.866665 81.04 1.56C78.3733 2.2 75.9733 3.24 73.84 4.68C71.7067 6.06666 69.9733 7.88 68.64 10.12C67.3067 12.36 66.64 15.08 66.64 18.28C66.64 20.7333 67.04 22.8133 67.84 24.52C68.6933 26.2267 69.7867 27.6667 71.12 28.84C72.5067 30.0133 74.0533 30.9733 75.76 31.72C77.4667 32.4667 79.2267 33.1067 81.04 33.64C82.8 34.1733 84.5333 34.68 86.24 35.16C88 35.64 89.5467 36.2 90.88 36.84C92.2667 37.48 93.3867 38.2533 94.24 39.16C95.0933 40.0133 95.52 41.1333 95.52 42.52C95.52 43.96 95.1733 45.1867 94.48 46.2C93.84 47.2133 92.9867 48.04 91.92 48.68C90.9067 49.32 89.76 49.8 88.48 50.12C87.2 50.44 85.92 50.6 84.64 50.6C82.8267 50.6 81.1467 50.44 79.6 50.12C78.0533 49.7467 76.72 49.16 75.6 48.36C74.48 47.56 73.6267 46.4933 73.04 45.16C72.4533 43.7733 72.2133 42.0667 72.32 40.04Z" fill="#125E99"/>
<path d="M122.32 34.48C122.32 35.5733 122.507 36.5067 122.88 37.28C123.253 38.0533 123.773 38.6933 124.44 39.2C125.107 39.68 125.867 40.04 126.72 40.28C127.6 40.4933 128.547 40.6 129.56 40.6C130.653 40.6 131.587 40.48 132.36 40.24C133.133 39.9733 133.76 39.64 134.24 39.24C134.72 38.84 135.067 38.3867 135.28 37.88C135.493 37.3467 135.6 36.8133 135.6 36.28C135.6 35.1867 135.347 34.3867 134.84 33.88C134.36 33.3467 133.827 32.9733 133.24 32.76C132.227 32.3867 131.04 32.04 129.68 31.72C128.347 31.3733 126.693 30.9333 124.72 30.4C123.493 30.08 122.467 29.6667 121.64 29.16C120.84 28.6267 120.2 28.04 119.72 27.4C119.24 26.76 118.893 26.08 118.68 25.36C118.493 24.64 118.4 23.9067 118.4 23.16C118.4 21.72 118.693 20.48 119.28 19.44C119.893 18.3733 120.693 17.4933 121.68 16.8C122.667 16.1067 123.787 15.6 125.04 15.28C126.293 14.9333 127.56 14.76 128.84 14.76C130.333 14.76 131.733 14.96 133.04 15.36C134.373 15.7333 135.533 16.3067 136.52 17.08C137.533 17.8533 138.333 18.8133 138.92 19.96C139.507 21.08 139.8 22.3867 139.8 23.88H134.8C134.667 22.04 134.04 20.7467 132.92 20C131.8 19.2267 130.373 18.84 128.64 18.84C128.053 18.84 127.453 18.9067 126.84 19.04C126.227 19.1467 125.667 19.3467 125.16 19.64C124.653 19.9067 124.227 20.28 123.88 20.76C123.56 21.24 123.4 21.84 123.4 22.56C123.4 23.5733 123.707 24.3733 124.32 24.96C124.96 25.52 125.787 25.9467 126.8 26.24C126.907 26.2667 127.32 26.3867 128.04 26.6C128.787 26.7867 129.613 27 130.52 27.24C131.427 27.48 132.307 27.72 133.16 27.96C134.04 28.1733 134.667 28.3333 135.04 28.44C135.973 28.7333 136.787 29.1333 137.48 29.64C138.173 30.1467 138.747 30.7333 139.2 31.4C139.68 32.04 140.027 32.7333 140.24 33.48C140.48 34.2267 140.6 34.9733 140.6 35.72C140.6 37.32 140.267 38.6933 139.6 39.84C138.96 40.96 138.107 41.88 137.04 42.6C135.973 43.32 134.76 43.84 133.4 44.16C132.04 44.5067 130.653 44.68 129.24 44.68C127.613 44.68 126.08 44.48 124.64 44.08C123.2 43.68 121.947 43.0667 120.88 42.24C119.813 41.4133 118.96 40.36 118.32 39.08C117.68 37.7733 117.347 36.24 117.32 34.48H122.32ZM144.778 15.44H150.058L163.098 36.48H163.178V15.44H167.938V44H162.658L149.658 23H149.538V44H144.778V15.44Z" fill="#DDDDDD"/>
</svg>
