<svg width="102" height="31" viewBox="0 0 102 31" fill="none" xmlns="http://www.w3.org/2000/svg">
<path d="M2.132 6.364H5.132V16.348C5.132 16.924 5.156 17.508 5.204 18.1C5.268 18.692 5.428 19.228 5.684 19.708C5.956 20.172 6.356 20.556 6.884 20.86C7.428 21.164 8.188 21.316 9.164 21.316C10.14 21.316 10.892 21.164 11.42 20.86C11.964 20.556 12.364 20.172 12.62 19.708C12.892 19.228 13.052 18.692 13.1 18.1C13.164 17.508 13.196 16.924 13.196 16.348V6.364H16.196V17.332C16.196 18.436 16.028 19.396 15.692 20.212C15.356 21.028 14.876 21.716 14.252 22.276C13.644 22.82 12.908 23.228 12.044 23.5C11.18 23.772 10.22 23.908 9.164 23.908C8.108 23.908 7.148 23.772 6.284 23.5C5.42 23.228 4.676 22.82 4.052 22.276C3.444 21.716 2.972 21.028 2.636 20.212C2.3 19.396 2.132 18.436 2.132 17.332V6.364ZM24.2283 6.364H27.4203L34.0203 23.5H30.8043L29.1963 18.964H22.3563L20.7483 23.5H17.6523L24.2283 6.364ZM23.1723 16.684H28.4043L25.8363 9.316H25.7643L23.1723 16.684Z" fill="#125E99"/>
<path d="M44.66 20.02H38.7C38.7 23.5133 39.6733 26.0733 41.62 27.7C43.5933 29.3267 46.58 30.14 50.58 30.14C51.94 30.14 53.3133 29.9667 54.7 29.62C56.0867 29.3 57.3267 28.7667 58.42 28.02C59.54 27.2733 60.4467 26.3 61.14 25.1C61.86 23.9 62.22 22.4467 62.22 20.74C62.22 19.46 62.0333 18.38 61.66 17.5C61.2867 16.62 60.7533 15.8733 60.06 15.26C59.3933 14.6467 58.5933 14.1533 57.66 13.78C56.7267 13.38 55.7 13.0333 54.58 12.74C54.1 12.6333 53.4733 12.5 52.7 12.34C51.9267 12.1533 51.1667 11.9133 50.42 11.62C49.7 11.3 49.0733 10.9133 48.54 10.46C48.0333 9.98 47.78 9.39333 47.78 8.7C47.78 8.03333 47.9267 7.47333 48.22 7.02C48.5133 6.56666 48.9 6.20666 49.38 5.94C49.86 5.64667 50.3933 5.44667 50.98 5.34C51.5933 5.20667 52.1933 5.14 52.78 5.14C53.5 5.14 54.18 5.22 54.82 5.38C55.46 5.51333 56.0067 5.75333 56.46 6.1C56.94 6.44667 57.3 6.9 57.54 7.46C57.8067 7.99333 57.9267 8.66 57.9 9.46H63.86C63.86 7.80667 63.5667 6.40667 62.98 5.26C62.42 4.08667 61.6467 3.12667 60.66 2.38C59.7 1.63333 58.5667 1.1 57.26 0.779998C55.98 0.433332 54.6067 0.26 53.14 0.26C51.7533 0.26 50.38 0.433332 49.02 0.779998C47.6867 1.1 46.4867 1.62 45.42 2.34C44.3533 3.03333 43.4867 3.94 42.82 5.06C42.1533 6.18 41.82 7.54 41.82 9.14C41.82 10.3667 42.02 11.4067 42.42 12.26C42.8467 13.1133 43.3933 13.8333 44.06 14.42C44.7533 15.0067 45.5267 15.4867 46.38 15.86C47.2333 16.2333 48.1133 16.5533 49.02 16.82C49.9 17.0867 50.7667 17.34 51.62 17.58C52.5 17.82 53.2733 18.1 53.94 18.42C54.6333 18.74 55.1933 19.1267 55.62 19.58C56.0467 20.0067 56.26 20.5667 56.26 21.26C56.26 21.98 56.0867 22.5933 55.74 23.1C55.42 23.6067 54.9933 24.02 54.46 24.34C53.9533 24.66 53.38 24.9 52.74 25.06C52.1 25.22 51.46 25.3 50.82 25.3C49.9133 25.3 49.0733 25.22 48.3 25.06C47.5267 24.8733 46.86 24.58 46.3 24.18C45.74 23.78 45.3133 23.2467 45.02 22.58C44.7267 21.8867 44.6067 21.0333 44.66 20.02Z" fill="#125E99"/>
<path d="M72.292 17.788C72.292 18.444 72.404 19.004 72.628 19.468C72.852 19.932 73.164 20.316 73.564 20.62C73.964 20.908 74.42 21.124 74.932 21.268C75.46 21.396 76.028 21.46 76.636 21.46C77.292 21.46 77.852 21.388 78.316 21.244C78.78 21.084 79.156 20.884 79.444 20.644C79.732 20.404 79.94 20.132 80.068 19.828C80.196 19.508 80.26 19.188 80.26 18.868C80.26 18.212 80.108 17.732 79.804 17.428C79.516 17.108 79.196 16.884 78.844 16.756C78.236 16.532 77.524 16.324 76.708 16.132C75.908 15.924 74.916 15.66 73.732 15.34C72.996 15.148 72.38 14.9 71.884 14.596C71.404 14.276 71.02 13.924 70.732 13.54C70.444 13.156 70.236 12.748 70.108 12.316C69.996 11.884 69.94 11.444 69.94 10.996C69.94 10.132 70.116 9.388 70.468 8.764C70.836 8.124 71.316 7.596 71.908 7.18C72.5 6.764 73.172 6.46 73.924 6.268C74.676 6.06 75.436 5.956 76.204 5.956C77.1 5.956 77.94 6.076 78.724 6.316C79.524 6.54 80.22 6.884 80.812 7.348C81.42 7.812 81.9 8.388 82.252 9.076C82.604 9.748 82.78 10.532 82.78 11.428H79.78C79.7 10.324 79.324 9.548 78.652 9.1C77.98 8.636 77.124 8.404 76.084 8.404C75.732 8.404 75.372 8.444 75.004 8.524C74.636 8.588 74.3 8.708 73.996 8.884C73.692 9.044 73.436 9.268 73.228 9.556C73.036 9.844 72.94 10.204 72.94 10.636C72.94 11.244 73.124 11.724 73.492 12.076C73.876 12.412 74.372 12.668 74.98 12.844C75.044 12.86 75.292 12.932 75.724 13.06C76.172 13.172 76.668 13.3 77.212 13.444C77.756 13.588 78.284 13.732 78.796 13.876C79.324 14.004 79.7 14.1 79.924 14.164C80.484 14.34 80.972 14.58 81.388 14.884C81.804 15.188 82.148 15.54 82.42 15.94C82.708 16.324 82.916 16.74 83.044 17.188C83.188 17.636 83.26 18.084 83.26 18.532C83.26 19.492 83.06 20.316 82.66 21.004C82.276 21.676 81.764 22.228 81.124 22.66C80.484 23.092 79.756 23.404 78.94 23.596C78.124 23.804 77.292 23.908 76.444 23.908C75.468 23.908 74.548 23.788 73.684 23.548C72.82 23.308 72.068 22.94 71.428 22.444C70.788 21.948 70.276 21.316 69.892 20.548C69.508 19.764 69.308 18.844 69.292 17.788H72.292ZM85.7665 6.364H88.9345L96.7585 18.988H96.8065V6.364H99.6625V23.5H96.4945L88.6945 10.9H88.6225V23.5H85.7665V6.364Z" fill="#125E99"/>
</svg>
