<svg width="18" height="18" viewBox="0 0 16 17" fill="none" xmlns="http://www.w3.org/2000/svg">
<path d="M8.00016 1.8335C4.31578 1.8335 1.3335 4.81519 1.3335 8.50016C1.3335 12.1845 4.31519 15.1668 8.00016 15.1668C9.29463 15.1668 10.5631 14.7867 11.6402 14.0856C11.9629 13.8755 12.0333 13.4327 11.7894 13.1347L11.5158 12.8005C11.3096 12.5486 10.9465 12.4869 10.6725 12.6626C9.87973 13.1711 8.94946 13.4464 8.00016 13.4464C5.2728 13.4464 3.05393 11.2275 3.05393 8.50016C3.05393 5.7728 5.2728 3.55393 8.00016 3.55393C10.6921 3.55393 12.9464 5.10282 12.9464 7.855C12.9464 8.89764 12.3794 9.9986 11.3827 10.1048C10.9163 10.0926 10.9281 9.7592 11.0204 9.29772L11.6504 6.04207C11.7274 5.64398 11.4224 5.27436 11.017 5.27436H9.8078C9.71852 5.27435 9.63236 5.30722 9.56577 5.36668C9.49917 5.42614 9.45679 5.50804 9.44672 5.59675L9.44645 5.59922C9.05137 5.11801 8.35914 5.01387 7.83433 5.01387C5.82949 5.01387 4.12919 6.68683 4.12919 9.08538C4.12919 10.8408 5.11804 11.9313 6.70984 11.9313C7.43522 11.9313 8.25202 11.511 8.72573 10.9009C8.9817 11.8177 9.81747 11.8176 10.6265 11.8176C13.5542 11.8176 14.6668 9.89258 14.6668 7.855C14.6668 4.18976 11.7105 1.8335 8.00016 1.8335ZM7.41737 10.0171C6.81928 10.0171 6.44774 9.59713 6.44774 8.9211C6.44774 7.71161 7.27514 6.96602 8.02382 6.96602C8.62307 6.96602 8.98083 7.37573 8.98083 8.06199C8.98083 9.27331 8.07022 10.0171 7.41737 10.0171Z" fill="#C5C5C5"/>
</svg>
