<svg width="14" height="14" viewBox="0 0 14 14" fill="none" xmlns="http://www.w3.org/2000/svg">
<path d="M0.475338 8.37334C0.283611 7.46782 0.283611 6.53219 0.475338 5.62667C1.21534 5.71334 1.862 5.46867 2.07267 4.95934C2.284 4.44934 2.00067 3.81934 1.41534 3.35734C1.92003 2.58155 2.58155 1.92003 3.35734 1.41534C3.81867 2 4.44934 2.284 4.95934 2.07267C5.46934 1.86134 5.714 1.21534 5.62667 0.475338C6.53219 0.283611 7.46782 0.283611 8.37334 0.475338C8.28667 1.21534 8.53134 1.862 9.04067 2.07267C9.55067 2.284 10.1807 2.00067 10.6427 1.41534C11.4185 1.92003 12.08 2.58155 12.5847 3.35734C12 3.81867 11.716 4.44934 11.9273 4.95934C12.1387 5.46934 12.7847 5.714 13.5247 5.62667C13.7164 6.53219 13.7164 7.46782 13.5247 8.37334C12.7847 8.28667 12.138 8.53134 11.9273 9.04067C11.716 9.55067 11.9993 10.1807 12.5847 10.6427C12.08 11.4185 11.4185 12.08 10.6427 12.5847C10.1813 12 9.55067 11.716 9.04067 11.9273C8.53067 12.1387 8.28601 12.7847 8.37334 13.5247C7.46782 13.7164 6.53219 13.7164 5.62667 13.5247C5.71334 12.7847 5.46867 12.138 4.95934 11.9273C4.44934 11.716 3.81934 11.9993 3.35734 12.5847C2.58155 12.08 1.92003 11.4185 1.41534 10.6427C2 10.1813 2.284 9.55067 2.07267 9.04067C1.86134 8.53067 1.21534 8.28601 0.475338 8.37334ZM1.66667 7.14C2.4 7.34334 3.00467 7.808 3.30467 8.53067C3.604 9.254 3.50467 10.0107 3.13 10.672C3.194 10.74 3.26 10.806 3.328 10.87C3.99 10.4953 4.74601 10.3967 5.46934 10.6953C6.19201 10.9953 6.65667 11.6 6.86 12.3333C6.95334 12.336 7.04667 12.336 7.14 12.3333C7.34334 11.6 7.808 10.9953 8.53067 10.6953C9.254 10.396 10.0107 10.4953 10.672 10.87C10.74 10.806 10.806 10.74 10.87 10.672C10.4953 10.01 10.3967 9.254 10.6953 8.53067C10.9953 7.808 11.6 7.34334 12.3333 7.14C12.336 7.04667 12.336 6.95334 12.3333 6.86C11.6 6.65667 10.9953 6.19201 10.6953 5.46934C10.396 4.74601 10.4953 3.98934 10.87 3.328C10.8058 3.26027 10.7397 3.19425 10.672 3.13C10.01 3.50467 9.254 3.60334 8.53067 3.30467C7.808 3.00467 7.34334 2.4 7.14 1.66667C7.04669 1.6642 6.95332 1.6642 6.86 1.66667C6.65667 2.4 6.19201 3.00467 5.46934 3.30467C4.74601 3.604 3.98934 3.50467 3.328 3.13C3.26 3.194 3.194 3.26 3.13 3.328C3.50467 3.99 3.60334 4.74601 3.30467 5.46934C3.00467 6.19201 2.4 6.65667 1.66667 6.86C1.664 6.95334 1.664 7.04667 1.66667 7.14ZM7 9C6.46957 9 5.96086 8.78929 5.58579 8.41422C5.21072 8.03915 5 7.53044 5 7C5 6.46957 5.21072 5.96086 5.58579 5.58579C5.96086 5.21072 6.46957 5 7 5C7.53044 5 8.03915 5.21072 8.41422 5.58579C8.78929 5.96086 9 6.46957 9 7C9 7.53044 8.78929 8.03915 8.41422 8.41422C8.03915 8.78929 7.53044 9 7 9ZM7 7.66667C7.17682 7.66667 7.34639 7.59643 7.47141 7.47141C7.59643 7.34639 7.66667 7.17682 7.66667 7C7.66667 6.82319 7.59643 6.65362 7.47141 6.5286C7.34639 6.40358 7.17682 6.33334 7 6.33334C6.82319 6.33334 6.65362 6.40358 6.5286 6.5286C6.40358 6.65362 6.33334 6.82319 6.33334 7C6.33334 7.17682 6.40358 7.34639 6.5286 7.47141C6.65362 7.59643 6.82319 7.66667 7 7.66667Z" fill="#919191"/>
</svg>
