<svg width="25" height="24" viewBox="0 0 25 24" fill="none" xmlns="http://www.w3.org/2000/svg">
<path d="M12.667 2.5C13.0458 2.5 13.3921 2.714 13.5614 3.05279L16.1404 8.2106L21.811 9.03541C22.1876 9.0902 22.5005 9.35402 22.6181 9.71599C22.7357 10.078 22.6376 10.4753 22.3651 10.741L18.238 14.7649L19.1664 20.4385C19.2278 20.8135 19.0713 21.1908 18.7627 21.4124C18.454 21.6339 18.0464 21.6614 17.7108 21.4834L12.667 18.8071L7.62324 21.4834C7.28761 21.6614 6.88005 21.6339 6.57139 21.4124C6.26273 21.1908 6.10629 20.8135 6.16765 20.4385L7.09605 14.7649L2.96892 10.741C2.69642 10.4753 2.59836 10.078 2.71596 9.71599C2.83357 9.35402 3.14645 9.0902 3.52308 9.03541L9.19369 8.2106L11.7726 3.05279C11.942 2.714 12.2882 2.5 12.667 2.5ZM12.667 5.73607L10.7489 9.57221C10.6026 9.86491 10.3223 10.0675 9.99846 10.1146L5.81541 10.723L8.86512 13.6965C9.09881 13.9243 9.2066 14.2519 9.1539 14.574L8.46703 18.7715L12.1983 16.7917C12.4914 16.6361 12.8426 16.6361 13.1357 16.7917L16.867 18.7715L16.1801 14.574C16.1274 14.2519 16.2352 13.9243 16.4689 13.6965L19.5186 10.723L15.3356 10.1146C15.0117 10.0675 14.7314 9.86491 14.5851 9.57221L12.667 5.73607Z" fill="#919191"/>
</svg>
