<svg width="25" height="24" viewBox="0 0 25 24" fill="none" xmlns="http://www.w3.org/2000/svg">
<path d="M10.333 4C8.12387 4 6.33301 5.79086 6.33301 8C6.33301 10.2091 8.12387 12 10.333 12C12.5421 12 14.333 10.2091 14.333 8C14.333 5.79086 12.5421 4 10.333 4ZM4.33301 8C4.33301 4.68629 7.0193 2 10.333 2C13.6467 2 16.333 4.68629 16.333 8C16.333 11.3137 13.6467 14 10.333 14C7.0193 14 4.33301 11.3137 4.33301 8ZM17.1614 3.75736C17.552 3.36683 18.1851 3.36683 18.5757 3.75736C20.9188 6.1005 20.9188 9.8995 18.5757 12.2426C18.1851 12.6332 17.552 12.6332 17.1614 12.2426C16.7709 11.8521 16.7709 11.219 17.1614 10.8284C18.7235 9.26633 18.7235 6.73367 17.1614 5.17157C16.7709 4.78105 16.7709 4.14788 17.1614 3.75736ZM17.8629 16.7575C17.9968 16.2217 18.5397 15.8959 19.0755 16.0299C20.4035 16.3618 21.244 17.2109 21.7274 18.1778C22.1952 19.1133 22.333 20.1571 22.333 21C22.333 21.5523 21.8853 22 21.333 22C20.7807 22 20.333 21.5523 20.333 21C20.333 20.3429 20.2208 19.6367 19.9386 19.0722C19.672 18.5391 19.2626 18.1382 18.5905 17.9701C18.0547 17.8362 17.7289 17.2933 17.8629 16.7575ZM6.83301 18C5.57355 18 4.33301 19.2135 4.33301 21C4.33301 21.5523 3.88529 22 3.33301 22C2.78072 22 2.33301 21.5523 2.33301 21C2.33301 18.3682 4.22647 16 6.83301 16H13.833C16.4395 16 18.333 18.3682 18.333 21C18.333 21.5523 17.8853 22 17.333 22C16.7807 22 16.333 21.5523 16.333 21C16.333 19.2135 15.0925 18 13.833 18H6.83301Z" fill="#919191"/>
</svg>
