<svg width="24" height="24" viewBox="0 0 24 24" fill="none" xmlns="http://www.w3.org/2000/svg">
<g clip-path="url(#clip0_37_328)">
<path d="M14.7611 1.047C15.1052 1.14003 15.3738 1.40921 15.4661 1.75353L16.5013 5.61724C17.6457 5.3106 18.8086 5.53359 19.726 6.1333C20.5203 6.65244 21.1353 7.45672 21.4003 8.44566C21.6653 9.43461 21.5348 10.4387 21.1065 11.2854C20.6118 12.2635 19.7163 13.038 18.5719 13.3446L19.6072 17.2083C19.6994 17.5527 19.6014 17.9201 19.3499 18.1727C19.0984 18.4253 18.7315 18.525 18.3867 18.4342L11.1426 16.5277L12.3974 21.2107C12.5404 21.7442 12.2238 22.2926 11.6903 22.4355L7.8266 23.4708C7.29313 23.6137 6.7448 23.2971 6.60185 22.7637L5.30776 17.934C4.24083 18.2199 3.14415 17.5868 2.85827 16.5198L1.30536 10.7243C1.01947 9.65733 1.65264 8.56066 2.71957 8.27478L8.25861 6.79059L13.7962 1.3021C14.0494 1.05117 14.417 0.953976 14.7611 1.047ZM10.5857 14.4493C10.7538 14.4042 10.9307 14.4038 11.099 14.4481L17.2293 16.0615L13.9802 3.93563L9.47789 8.39804C9.35429 8.52054 9.20086 8.60867 9.03276 8.65371L3.23721 10.2066L4.79012 16.0022L10.5857 14.4493ZM7.23961 17.4164L8.27489 21.2801L10.2067 20.7625L9.17146 16.8988L7.23961 17.4164ZM18.0543 11.4128C18.6263 11.2595 19.073 10.8746 19.3218 10.3827C19.5365 9.95817 19.6012 9.4587 19.4685 8.9633C19.3357 8.4679 19.03 8.06769 18.6318 7.80738C18.1703 7.50577 17.591 7.3958 17.019 7.54909L18.0543 11.4128Z" fill="#125E99"/>
</g>
<defs>
<clipPath id="clip0_37_328">
<rect width="24" height="24" fill="white"/>
</clipPath>
</defs>
</svg>
