<svg width="18" height="18" viewBox="0 0 16 17" fill="none" xmlns="http://www.w3.org/2000/svg">
<path d="M12 5.83317H13.3333C13.5101 5.83317 13.6797 5.90341 13.8047 6.02843C13.9298 6.15346 14 6.32303 14 6.49984V14.4998C14 14.6766 13.9298 14.8462 13.8047 14.9712C13.6797 15.0963 13.5101 15.1665 13.3333 15.1665H2.66667C2.48986 15.1665 2.32029 15.0963 2.19526 14.9712C2.07024 14.8462 2 14.6766 2 14.4998V6.49984C2 6.32303 2.07024 6.15346 2.19526 6.02843C2.32029 5.90341 2.48986 5.83317 2.66667 5.83317H4V5.1665C4 4.10564 4.42143 3.08822 5.17157 2.33808C5.92172 1.58793 6.93913 1.1665 8 1.1665C9.06087 1.1665 10.0783 1.58793 10.8284 2.33808C11.5786 3.08822 12 4.10564 12 5.1665V5.83317ZM7.33333 10.9878V12.4998H8.66667V10.9878C8.92086 10.8411 9.11952 10.6146 9.23184 10.3434C9.34416 10.0722 9.36387 9.77156 9.2879 9.48804C9.21193 9.20453 9.04454 8.95401 8.81168 8.77533C8.57882 8.59665 8.29351 8.4998 8 8.4998C7.70649 8.4998 7.42118 8.59665 7.18832 8.77533C6.95546 8.95401 6.78807 9.20453 6.7121 9.48804C6.63613 9.77156 6.65584 10.0722 6.76816 10.3434C6.88048 10.6146 7.07914 10.8411 7.33333 10.9878V10.9878ZM10.6667 5.83317V5.1665C10.6667 4.45926 10.3857 3.78098 9.88562 3.28089C9.38552 2.78079 8.70724 2.49984 8 2.49984C7.29276 2.49984 6.61448 2.78079 6.11438 3.28089C5.61428 3.78098 5.33333 4.45926 5.33333 5.1665V5.83317H10.6667Z" fill="#C5C5C5"/>
</svg>
